<?xml version="1.0" encoding="UTF-8"?>
<svg version="1.1" xmlns="http://www.w3.org/2000/svg" width="512" height="512">
<path d="M0 0 C0.89115509 -0.00974854 1.78231018 -0.01949707 2.70046997 -0.02954102 C22.63293108 -0.20264286 41.86559565 0.06369901 61.4453125 4.23828125 C62.77079102 4.51115967 62.77079102 4.51115967 64.12304688 4.78955078 C105.34784078 13.49342708 143.65278781 33.55407357 174.4453125 62.23828125 C175.83675916 63.45166344 177.23239889 64.66025928 178.6328125 65.86328125 C185.12642006 71.55168147 190.72060083 77.62806502 196.12890625 84.36328125 C197.62026628 86.21427785 199.13192996 88.04918974 200.66796875 89.86328125 C211.37655764 102.55494215 219.73850793 116.5738543 227.4453125 131.23828125 C227.79303711 131.88893555 228.14076172 132.53958984 228.49902344 133.20996094 C239.66788692 154.35997462 246.75126165 178.69014258 250.4453125 202.23828125 C250.62787598 203.39384521 250.81043945 204.54940918 250.99853516 205.73999023 C252.59886637 217.00999862 252.84447883 228.17905615 252.8203125 239.55078125 C252.81949677 240.99969254 252.81949677 240.99969254 252.81866455 242.47787476 C252.75654087 266.55129834 249.41615617 289.15610162 242.4453125 312.23828125 C242.19442871 313.07343262 241.94354492 313.90858398 241.68505859 314.76904297 C232.01757563 346.15883169 214.90161782 375.995381 192.484375 400.04296875 C189.83957532 402.89043507 187.34764226 405.8586622 184.85546875 408.83984375 C183.4453125 410.23828125 183.4453125 410.23828125 181.4453125 410.23828125 C181.03974121 409.41759155 181.03974121 409.41759155 180.62597656 408.58032227 C174.18895663 395.66176823 167.19279643 383.72210914 158.4453125 372.23828125 C157.72085937 371.27019531 156.99640625 370.30210937 156.25 369.3046875 C125.80563872 330.35211119 79.66163708 306.2338413 31.0078125 299.98828125 C-17.34342745 294.61717501 -65.21959319 311.06207684 -102.9765625 340.91796875 C-126.71249759 360.1692176 -142.7294798 383.25575028 -156.5546875 410.23828125 C-179.53316576 400.9513674 -199.43310312 357.55341851 -208.74707031 336.54931641 C-219.83636022 310.21842455 -227.53109192 281.37607206 -227.79296875 252.68359375 C-227.8027626 251.79257462 -227.81255646 250.90155548 -227.82264709 249.98353577 C-228.06977464 221.65429212 -225.7888597 195.50365266 -217.5546875 168.23828125 C-217.17836182 166.9855542 -217.17836182 166.9855542 -216.79443359 165.70751953 C-203.42490392 122.29738749 -175.36083111 81.26686088 -139.5546875 53.23828125 C-138.56984375 52.44808594 -137.585 51.65789062 -136.5703125 50.84375 C-98.53859031 20.59941859 -48.96468094 0.44659656 0 0 Z M-56.23193359 130.67285156 C-73.02920451 150.55179234 -78.05891999 174.86028437 -76.5546875 200.23828125 C-74.74248108 216.82211562 -67.01121421 232.434371 -56.5546875 245.23828125 C-56.02617187 245.92921875 -55.49765625 246.62015625 -54.953125 247.33203125 C-41.97506156 263.44273069 -19.9787716 274.77754823 0.4453125 277.23828125 C18.919231 278.28913196 35.88937872 277.12620359 52.4453125 268.23828125 C53.39535156 267.74714844 54.34539062 267.25601563 55.32421875 266.75 C77.95526672 254.38701552 91.92521928 234.45487491 99.4140625 210.0859375 C105.39463652 186.80046179 100.88379599 162.52902894 89.09375 141.8515625 C75.13661259 119.72520011 54.57464599 106.37766332 29.4453125 100.23828125 C-2.6207785 93.34429846 -34.74660483 107.02425801 -56.23193359 130.67285156 Z " fill="#9C6F9E" transform="translate(243.5546875,15.76171875)"/>
<path d="M0 0 C2.99808481 2.69319483 5.92086395 5.45967672 8.83984375 8.23828125 C9.59652344 8.93050781 10.35320312 9.62273437 11.1328125 10.3359375 C27.36261656 25.67886702 38.24518865 45.34309725 47.83984375 65.23828125 C43.94990482 70.05667204 39.89485743 74.16478744 35.02734375 77.98828125 C34.3820874 78.4985083 33.73683105 79.00873535 33.07202148 79.53442383 C10.27609448 97.24819522 -15.71548009 110.49639961 -43.16015625 119.23828125 C-43.9087793 119.47675781 -44.65740234 119.71523438 -45.42871094 119.9609375 C-63.84508958 125.70323819 -83.40139425 129.30028826 -102.71484375 129.4765625 C-104.05137245 129.49125328 -104.05137245 129.49125328 -105.41490173 129.50624084 C-133.74414538 129.75336839 -159.89478484 127.47245345 -187.16015625 119.23828125 C-187.99530762 118.98739746 -188.83045898 118.73651367 -189.69091797 118.47802734 C-221.44232241 108.69917333 -253.62677473 91.03848115 -277.16015625 67.23828125 C-277.49015625 66.57828125 -277.82015625 65.91828125 -278.16015625 65.23828125 C-277.1171834 62.76503276 -276.01398613 60.43069872 -274.78515625 58.05078125 C-274.23867432 56.98089966 -274.23867432 56.98089966 -273.68115234 55.8894043 C-264.63273183 38.41134107 -253.71113109 23.47385214 -240.16015625 9.23828125 C-239.46792969 8.48160156 -238.77570313 7.72492188 -238.0625 6.9453125 C-226.99538126 -4.76152408 -213.24845787 -14.07284905 -199.16015625 -21.76171875 C-198.53318848 -22.10541504 -197.9062207 -22.44911133 -197.26025391 -22.80322266 C-133.54540267 -57.25548046 -54.32468138 -47.96914763 0 0 Z " fill="#5F5687" transform="translate(371.16015625,366.76171875)"/>
<path d="M0 0 C2.47278832 1.91183171 4.79115613 3.90680038 7.09375 6.01953125 C7.84914063 6.68339844 8.60453125 7.34726563 9.3828125 8.03125 C23.85121916 21.48040465 32.42175867 40.55336743 33.4140625 60.203125 C34.10250278 82.80459942 28.65341852 103.06157512 13.09375 120.01953125 C12.42988281 120.77492188 11.76601563 121.5303125 11.08203125 122.30859375 C2.11170282 131.95874374 -9.46903256 138.81888165 -21.90625 143.01953125 C-22.82792969 143.33792969 -23.74960937 143.65632812 -24.69921875 143.984375 C-45.66649533 149.99480963 -68.38660958 146.41820249 -87.27734375 136.15625 C-92.28361246 133.29274222 -96.6601505 129.91551377 -100.90625 126.01953125 C-101.66164062 125.35566406 -102.41703125 124.69179688 -103.1953125 124.0078125 C-112.84282403 115.03993666 -119.71142707 103.45594747 -123.90625 91.01953125 C-124.22464844 90.08625 -124.54304687 89.15296875 -124.87109375 88.19140625 C-130.79607918 67.3310889 -127.33461583 44.41020754 -117.04296875 25.61328125 C-114.16441858 20.63162707 -110.79332356 16.25592117 -106.90625 12.01953125 C-106.24238281 11.26414063 -105.57851562 10.50875 -104.89453125 9.73046875 C-77.99051714 -19.21248174 -31.92326225 -21.75415855 0 0 Z " fill="#9E709E" transform="translate(302.90625,137.98046875)"/>
</svg>
